<svg width="600" height="400" viewBox="0 0 600 400" fill="none" xmlns="http://www.w3.org/2000/svg">
  <!-- Time capsule illustration - a stylized capsule with a clock -->
  <circle cx="300" cy="200" r="150" fill="#f0f4f8" stroke="#3f51b5" stroke-width="8"/>
  <circle cx="300" cy="200" r="130" fill="white" stroke="#3f51b5" stroke-width="4"/>
  
  <!-- Clock hands -->
  <line x1="300" y1="200" x2="300" y2="120" stroke="#3f51b5" stroke-width="6" stroke-linecap="round"/>
  <line x1="300" y1="200" x2="350" y2="240" stroke="#3f51b5" stroke-width="6" stroke-linecap="round"/>
  
  <!-- Clock center -->
  <circle cx="300" cy="200" r="10" fill="#3f51b5"/>
  
  <!-- Hour markers -->
  <line x1="300" y1="90" x2="300" y2="110" stroke="#3f51b5" stroke-width="4" stroke-linecap="round"/>
  <line x1="300" y1="290" x2="300" y2="310" stroke="#3f51b5" stroke-width="4" stroke-linecap="round"/>
  <line x1="190" y1="200" x2="210" y2="200" stroke="#3f51b5" stroke-width="4" stroke-linecap="round"/>
  <line x1="390" y1="200" x2="410" y2="200" stroke="#3f51b5" stroke-width="4" stroke-linecap="round"/>
  
  <!-- Digital elements surrounding the capsule -->
  <rect x="120" y="100" width="30" height="30" rx="5" fill="#f50057" opacity="0.7"/>
  <rect x="450" y="150" width="40" height="40" rx="5" fill="#3f51b5" opacity="0.7"/>
  <rect x="180" y="320" width="25" height="25" rx="5" fill="#00bfa5" opacity="0.7"/>
  <rect x="430" y="280" width="35" height="35" rx="5" fill="#f50057" opacity="0.7"/>
  
  <!-- Document icons -->
  <rect x="180" y="120" width="40" height="50" rx="5" fill="#e3f2fd" stroke="#3f51b5" stroke-width="2"/>
  <line x1="190" y1="135" x2="210" y2="135" stroke="#3f51b5" stroke-width="2"/>
  <line x1="190" y1="145" x2="210" y2="145" stroke="#3f51b5" stroke-width="2"/>
  <line x1="190" y1="155" x2="200" y2="155" stroke="#3f51b5" stroke-width="2"/>
  
  <rect x="400" y="120" width="40" height="50" rx="5" fill="#e3f2fd" stroke="#3f51b5" stroke-width="2"/>
  <line x1="410" y1="135" x2="430" y2="135" stroke="#3f51b5" stroke-width="2"/>
  <line x1="410" y1="145" x2="430" y2="145" stroke="#3f51b5" stroke-width="2"/>
  <line x1="410" y1="155" x2="420" y2="155" stroke="#3f51b5" stroke-width="2"/>
  
  <!-- Photo frame -->
  <rect x="380" y="250" width="50" height="40" rx="5" fill="#e3f2fd" stroke="#3f51b5" stroke-width="2"/>
  <circle cx="395" cy="265" r="5" fill="#3f51b5"/>
  <rect x="390" y="275" width="30" height="10" fill="#3f51b5" opacity="0.5"/>
</svg>
